<svg width="30" height="30" viewBox="0 0 30 30" fill="none" xmlns="http://www.w3.org/2000/svg">
<path d="M11.9375 18.9375L22.5312 8.34375C22.7812 8.09375 23.0729 7.96875 23.4062 7.96875C23.7396 7.96875 24.0312 8.09375 24.2812 8.34375C24.5312 8.59375 24.6562 8.89083 24.6562 9.235C24.6562 9.57917 24.5312 9.87583 24.2812 10.125L12.8125 21.625C12.5625 21.875 12.2708 22 11.9375 22C11.6041 22 11.3125 21.875 11.0625 21.625L5.68748 16.25C5.43748 16 5.31748 15.7033 5.32748 15.36C5.33748 15.0167 5.4679 14.7196 5.71873 14.4688C5.96956 14.2179 6.26665 14.0929 6.60998 14.0937C6.95331 14.0946 7.24998 14.2196 7.49998 14.4688L11.9375 18.9375Z" fill="black" fill-opacity="0.5"/>
</svg>
