<svg width="30" height="30" viewBox="0 0 30 30" fill="none" xmlns="http://www.w3.org/2000/svg">
<path d="M21.25 3.75H8.75C8.08696 3.75 7.45107 4.01339 6.98223 4.48223C6.51339 4.95107 6.25 5.58696 6.25 6.25V25.1725C6.25004 25.2819 6.27881 25.3895 6.33345 25.4843C6.38809 25.5791 6.46667 25.658 6.56134 25.7129C6.65601 25.7678 6.76344 25.7969 6.87289 25.7973C6.98234 25.7977 7.08996 25.7693 7.185 25.715L13.76 21.9587C14.1377 21.743 14.5651 21.6296 15 21.6296C15.4349 21.6296 15.8623 21.743 16.24 21.9587L22.815 25.7162C22.9101 25.7706 23.0179 25.799 23.1274 25.7985C23.237 25.7981 23.3445 25.7689 23.4392 25.7138C23.5339 25.6588 23.6125 25.5798 23.667 25.4847C23.7216 25.3897 23.7502 25.2821 23.75 25.1725V6.25C23.75 5.58696 23.4866 4.95107 23.0178 4.48223C22.5489 4.01339 21.913 3.75 21.25 3.75Z" stroke="black" stroke-width="2" stroke-linecap="round" stroke-linejoin="round"/>
</svg>
