<svg width="52" height="53" viewBox="0 0 52 53" fill="none" xmlns="http://www.w3.org/2000/svg">
<path d="M17.3399 7.10693H13.0098C11.8614 7.10693 10.76 7.56314 9.94795 8.3752C9.1359 9.18725 8.67969 10.2886 8.67969 11.4371V41.748C8.67969 42.8964 9.1359 43.9978 9.94795 44.8098C10.76 45.6219 11.8614 46.0781 13.0098 46.0781H38.9906C40.139 46.0781 41.2404 45.6219 42.0524 44.8098C42.8645 43.9978 43.3207 42.8964 43.3207 41.748V11.4371C43.3207 10.2886 42.8645 9.18725 42.0524 8.3752C41.2404 7.56314 40.139 7.10693 38.9906 7.10693H30.3303M17.3399 7.10693V26.5925L23.8351 20.0973L30.3303 26.5925V7.10693M17.3399 7.10693H30.3303" stroke="black" stroke-width="2" stroke-linecap="round" stroke-linejoin="round"/>
</svg>
