<svg width="52" height="52" viewBox="0 0 52 52" fill="none" xmlns="http://www.w3.org/2000/svg">
<path d="M26.0196 28.1842C29.6068 28.1842 32.5148 25.2762 32.5148 21.689C32.5148 18.1018 29.6068 15.1938 26.0196 15.1938C22.4324 15.1938 19.5244 18.1018 19.5244 21.689C19.5244 25.2762 22.4324 28.1842 26.0196 28.1842Z" stroke="black" stroke-width="2" stroke-linecap="round" stroke-linejoin="round"/>
<path d="M36.845 36.8446C36.845 32.0598 31.9974 28.1843 26.0197 28.1843C20.0419 28.1843 15.1943 32.0598 15.1943 36.8446" stroke="black" stroke-width="2" stroke-linecap="round" stroke-linejoin="round"/>
<path d="M39.0101 6.53369H13.0294C9.44218 6.53369 6.53418 9.44169 6.53418 13.0289V39.0096C6.53418 42.5968 9.44218 45.5048 13.0294 45.5048H39.0101C42.5973 45.5048 45.5053 42.5968 45.5053 39.0096V13.0289C45.5053 9.44169 42.5973 6.53369 39.0101 6.53369Z" stroke="black" stroke-width="2" stroke-linecap="round" stroke-linejoin="round"/>
</svg>
